<svg width="400" height="400" viewBox="0 0 400 400" fill="none" xmlns="http://www.w3.org/2000/svg">
<g filter="url(#filter0_d_126_108)">
<path d="M268.21 376.86L267.67 387.9L260.29 379.66C242.47 359.77 210.07 364.86 199.21 389.26L194.71 399.36L190.81 389.02C181.38 364.04 149.33 357.08 130.39 375.91L122.55 383.71L122.65 372.65C122.88 345.95 95.51 327.88 71.05 338.59L60.92 343.03L65 332.75C74.86 307.93 55.86 281.2 29.19 282.35L18.14 282.83L25.66 274.72C43.82 255.14 35.76 223.35 10.47 214.79L0 211.24L9.94 206.4C33.95 194.71 37.92 162.15 17.42 145.03L8.93 137.94L19.95 137.02C46.56 134.79 62.02 105.86 49.1 82.5L43.75 72.82L54.36 75.94C79.98 83.47 104.85 62.09 101.24 35.63L99.74 24.67L108.51 31.41C129.68 47.69 160.59 36.73 166.78 10.75L169.34 -0.0100098L175.08 9.43999C188.94 32.27 221.72 33.22 236.88 11.23L243.16 2.12999L245.1 13.02C249.78 39.31 280.01 52.04 302.08 37.01L311.22 30.79L309.09 41.64C303.95 67.85 327.54 90.63 353.56 84.6L364.33 82.1L358.43 91.45C344.17 114.03 357.94 143.8 384.37 147.57L395.32 149.13L386.44 155.72C364.99 171.63 367.07 204.36 390.36 217.42L400 222.83L389.34 225.76C363.59 232.84 353.71 264.12 370.71 284.71L377.75 293.24L366.75 292.12C340.18 289.42 319.67 315.01 328.08 340.36L331.56 350.85L321.71 345.84C297.91 333.73 269.54 350.18 268.22 376.85L268.21 376.86Z" fill="#00FFFF"/>
</g>
<defs>
<filter id="filter0_d_126_108" x="-4" y="-0.0100098" width="408" height="413.37" filterUnits="userSpaceOnUse" color-interpolation-filters="sRGB">
<feFlood flood-opacity="0" result="BackgroundImageFix"/>
<feColorMatrix in="SourceAlpha" type="matrix" values="0 0 0 0 0 0 0 0 0 0 0 0 0 0 0 0 0 0 127 0" result="hardAlpha"/>
<feOffset dy="10"/>
<feGaussianBlur stdDeviation="2"/>
<feComposite in2="hardAlpha" operator="out"/>
<feColorMatrix type="matrix" values="0 0 0 0 0 0 0 0 0 0 0 0 0 0 0 0 0 0 0.25 0"/>
<feBlend mode="normal" in2="BackgroundImageFix" result="effect1_dropShadow_126_108"/>
<feBlend mode="normal" in="SourceGraphic" in2="effect1_dropShadow_126_108" result="shape"/>
</filter>
</defs>
</svg>
