<svg width="400" height="377" viewBox="0 0 400 377" fill="none" xmlns="http://www.w3.org/2000/svg">
<g filter="url(#filter0_d_107_53)">
<path d="M316.17 342.893L264.39 344.01L226.32 376.951L179.92 355.368L129.89 367.947L99.5 328.608L48.97 317.943L41.55 269.863L2.09 238.385L19.34 192.584L0 147.514L37.97 114.479L43.17 66.1362L93.16 53.4361L121.72 12.8971L172.28 23.4398L217.64 0L257.19 31.3751L308.97 30.3902L328.44 75.4033L374.78 97.1079L369.72 145.46L400 184.874L371.56 225.478L378.85 273.577L333.55 297.13L316.17 342.893Z" fill="#F9F98B"/>
</g>
<defs>
<filter id="filter0_d_107_53" x="-14" y="0" width="414" height="384.951" filterUnits="userSpaceOnUse" color-interpolation-filters="sRGB">
<feFlood flood-opacity="0" result="BackgroundImageFix"/>
<feColorMatrix in="SourceAlpha" type="matrix" values="0 0 0 0 0 0 0 0 0 0 0 0 0 0 0 0 0 0 127 0" result="hardAlpha"/>
<feOffset dx="-10" dy="4"/>
<feGaussianBlur stdDeviation="2"/>
<feComposite in2="hardAlpha" operator="out"/>
<feColorMatrix type="matrix" values="0 0 0 0 0 0 0 0 0 0 0 0 0 0 0 0 0 0 0.25 0"/>
<feBlend mode="normal" in2="BackgroundImageFix" result="effect1_dropShadow_107_53"/>
<feBlend mode="normal" in="SourceGraphic" in2="effect1_dropShadow_107_53" result="shape"/>
</filter>
</defs>
</svg>
